<svg width="38" height="38" viewBox="0 0 38 38" fill="none" xmlns="http://www.w3.org/2000/svg">
<rect x="1" y="1" width="36" height="36" rx="10" fill="#FAFAFA" stroke="#EBF0ED"/>
<path d="M17.5836 12.9531C16.533 13.0014 15.5042 13.1149 14.5008 13.2309C13.9352 13.2976 13.4087 13.5532 13.0065 13.9565C12.6044 14.3597 12.3501 14.8869 12.285 15.4527C12.1401 16.7544 12 18.1008 12 19.4774C12 20.8551 12.1401 22.2015 12.285 23.5045C12.4154 24.6637 13.3416 25.5898 14.5008 25.7239C15.8097 25.8748 17.1622 26.0258 18.546 26.0258C19.931 26.0258 21.2834 25.8748 22.5924 25.7239C23.1574 25.657 23.6833 25.4016 24.0852 24.9988C24.4871 24.5961 24.7414 24.0696 24.807 23.5045C24.9217 22.5493 25.007 21.5909 25.063 20.6305" stroke="#828282" stroke-width="1.5" stroke-linecap="round" stroke-linejoin="round"/>
<path d="M23.2823 11.6165L18.8326 16.664L18.224 19.5318C18.125 19.9931 18.6068 20.4302 19.0572 20.2877L21.9094 19.3917L26.5052 14.5556C27.2696 13.7526 27.1355 12.4086 26.2118 11.5911C25.3097 10.7942 23.9984 10.8051 23.2823 11.6165Z" stroke="#828282" stroke-width="1.5" stroke-linecap="round" stroke-linejoin="round"/>
</svg>
