<svg width="17" height="17" viewBox="0 0 17 17" fill="none" xmlns="http://www.w3.org/2000/svg">
<path d="M6.58358 2.95312C5.53304 3.00143 4.50423 3.11493 3.50078 3.23086C2.93519 3.29756 2.40869 3.55323 2.00653 3.95648C1.60438 4.35973 1.35014 4.88693 1.28498 5.4527C1.14007 6.75441 1 8.10079 1 9.47737C1 10.8552 1.14007 12.2015 1.28498 13.5045C1.41539 14.6637 2.34156 15.5898 3.50078 15.7239C4.80973 15.8748 6.16216 16.0258 7.54598 16.0258C8.93101 16.0258 10.2834 15.8748 11.5924 15.7239C12.1574 15.657 12.6833 15.4016 13.0852 14.9989C13.4871 14.5961 13.7414 14.0696 13.807 13.5045C13.9217 12.5493 14.007 11.5909 14.063 10.6306" stroke="#828282" stroke-width="1.5" stroke-linecap="round" stroke-linejoin="round"/>
<path d="M12.2823 1.61651L7.8326 6.66395L7.224 9.53182C7.12499 9.99309 7.60679 10.4302 8.0572 10.2877L10.9094 9.39174L15.5052 4.55562C16.2696 3.75261 16.1355 2.40864 15.2118 1.59115C14.3097 0.794184 12.9984 0.805052 12.2823 1.61651Z" stroke="#828282" stroke-width="1.5" stroke-linecap="round" stroke-linejoin="round"/>
</svg>
