<svg width="18" height="18" viewBox="0 0 18 18" fill="none" xmlns="http://www.w3.org/2000/svg">
<path d="M7.26562 15.9863C7.59785 16.5897 8.25158 17.0002 9.00368 17.0002C9.7558 17.0002 10.4095 16.5897 10.7418 15.9863" stroke="black" stroke-width="1.5" stroke-linecap="round" stroke-linejoin="round"/>
<path d="M5.40284 2.45147C6.35686 1.52211 7.6508 1 9 1C10.3492 1 11.6431 1.52211 12.5972 2.45147C13.5512 3.38083 14.0872 4.64132 14.0872 5.95564C14.0872 6.72897 14.2182 7.45562 14.4153 8.19889C14.4704 8.36714 14.5313 8.52591 14.5967 8.6757C14.9016 9.37429 15.7409 9.61266 16.3673 10.0643C17.3022 10.7385 17.1214 12.1811 16.3438 12.7412C16.3438 12.7412 15.0883 13.8 9 13.8C2.91165 13.8 1.65617 12.7412 1.65617 12.7412C0.878584 12.1811 0.697842 10.7385 1.6327 10.0643C2.25901 9.61266 3.09838 9.37434 3.40331 8.67576C3.70726 7.97944 3.91284 7.08869 3.91284 5.95564C3.91284 4.64132 4.44881 3.38083 5.40284 2.45147Z" stroke="black" stroke-width="1.5" stroke-linecap="round" stroke-linejoin="round"/>
</svg>
